<svg width="42" height="41" viewBox="0 0 42 41" fill="none" xmlns="http://www.w3.org/2000/svg">
    <path d="M21.0695 29.0347C20.167 29.0347 19.3015 28.6762 18.6634 28.0381C18.0252 27.3999 17.6667 26.5344 17.6667 25.6319C17.6667 23.7434 19.1809 22.2292 21.0695 22.2292C21.972 22.2292 22.8375 22.5877 23.4756 23.2258C24.1138 23.864 24.4723 24.7295 24.4723 25.6319C24.4723 26.5344 24.1138 27.3999 23.4756 28.0381C22.8375 28.6762 21.972 29.0347 21.0695 29.0347ZM31.2778 34.1389V17.125H10.8612V34.1389H31.2778ZM31.2778 13.7222C32.1803 13.7222 33.0458 14.0807 33.6839 14.7189C34.3221 15.357 34.6806 16.2225 34.6806 17.125V34.1389C34.6806 35.0414 34.3221 35.9069 33.6839 36.545C33.0458 37.1832 32.1803 37.5417 31.2778 37.5417H10.8612C9.95868 37.5417 9.09317 37.1832 8.45502 36.545C7.81688 35.9069 7.45837 35.0414 7.45837 34.1389V17.125C7.45837 15.2365 8.97261 13.7222 10.8612 13.7222H12.5625V10.3194C12.5625 8.06326 13.4588 5.89949 15.0542 4.30413C16.6495 2.70876 18.8133 1.8125 21.0695 1.8125C22.1866 1.8125 23.2928 2.03254 24.325 2.46005C25.3571 2.88757 26.2949 3.51418 27.0848 4.30413C27.8747 5.09407 28.5014 6.03187 28.9289 7.06398C29.3564 8.09609 29.5764 9.2023 29.5764 10.3194V13.7222H31.2778ZM21.0695 5.21528C19.7158 5.21528 18.4175 5.75304 17.4603 6.71025C16.5031 7.66747 15.9653 8.96573 15.9653 10.3194V13.7222H26.1737V10.3194C26.1737 8.96573 25.6359 7.66747 24.6787 6.71025C23.7215 5.75304 22.4232 5.21528 21.0695 5.21528Z" fill="white"/>
</svg>
