<svg width="34" height="34" viewBox="0 0 34 34" fill="none" xmlns="http://www.w3.org/2000/svg">
    <path d="M31.222 18.1218C30.9446 17.8117 30.7916 17.4129 30.7916 17C30.7916 16.5871 30.9446 16.1883 31.222 15.8782L33.4369 13.4305C33.681 13.1631 33.8325 12.8266 33.8698 12.4693C33.9071 12.112 33.8283 11.7523 33.6446 11.4418L30.1838 5.56056C30.0019 5.25038 29.725 5.00452 29.3926 4.85802C29.0601 4.71151 28.6891 4.67185 28.3323 4.74467L25.0792 5.39058C24.6652 5.4746 24.2343 5.40688 23.8677 5.20021C23.5011 4.99353 23.2242 4.6622 23.0892 4.26873L22.0337 1.15815C21.9176 0.820545 21.6965 0.527311 21.4015 0.3199C21.1065 0.112489 20.7526 0.00139176 20.3899 0.00231161H13.4683C13.091 -0.0170352 12.7176 0.0854751 12.4051 0.294186C12.0927 0.502897 11.8583 0.806335 11.7379 1.15815L10.7689 4.26873C10.634 4.6622 10.3571 4.99353 9.99046 5.20021C9.62386 5.40688 9.19294 5.4746 8.779 5.39058L5.43937 4.74467C5.10116 4.69772 4.75638 4.75014 4.44846 4.89533C4.14053 5.04052 3.88324 5.27198 3.70899 5.56056L0.248225 11.4418C0.0598902 11.7488 -0.024791 12.1065 0.00628741 12.4637C0.0373659 12.8209 0.182613 13.1593 0.421262 13.4305L2.61885 15.8782C2.89626 16.1883 3.04925 16.5871 3.04925 17C3.04925 17.4129 2.89626 17.8117 2.61885 18.1218L0.421262 20.5695C0.182613 20.8407 0.0373659 21.1791 0.00628741 21.5363C-0.024791 21.8935 0.0598902 22.2512 0.248225 22.5582L3.70899 28.4394C3.89084 28.7496 4.16774 28.9955 4.5002 29.142C4.83267 29.2885 5.20373 29.3282 5.56049 29.2553L8.81361 28.6094C9.22754 28.5254 9.65847 28.5931 10.0251 28.7998C10.3917 29.0065 10.6686 29.3378 10.8035 29.7313L11.8591 32.8418C11.9795 33.1937 12.2138 33.4971 12.5263 33.7058C12.8387 33.9145 13.2121 34.017 13.5895 33.9977H20.511C20.8737 33.9986 21.2276 33.8875 21.5226 33.6801C21.8176 33.4727 22.0388 33.1795 22.1548 32.8418L23.2104 29.7313C23.3453 29.3378 23.6222 29.0065 23.9888 28.7998C24.3554 28.5931 24.7864 28.5254 25.2003 28.6094L28.4534 29.2553C28.8102 29.3282 29.1812 29.2885 29.5137 29.142C29.8462 28.9955 30.1231 28.7496 30.3049 28.4394L33.7657 22.5582C33.9494 22.2477 34.0283 21.888 33.991 21.5307C33.9537 21.1734 33.8021 20.8369 33.558 20.5695L31.222 18.1218ZM28.6438 20.3995L30.0281 21.9293L27.8132 25.7028L25.7713 25.2949C24.5251 25.0446 23.2287 25.2526 22.1282 25.8793C21.0277 26.5059 20.1998 27.5077 19.8015 28.6944L19.144 30.5982H14.7142L14.0913 28.6604C13.693 27.4737 12.8651 26.4719 11.7646 25.8453C10.6641 25.2186 9.36771 25.0106 8.12145 25.2609L6.07961 25.6688L3.83011 21.9123L5.21442 20.3825C6.06568 19.4476 6.53631 18.2373 6.53631 16.983C6.53631 15.7287 6.06568 14.5184 5.21442 13.5835L3.83011 12.0537L6.045 8.31418L8.08685 8.72213C9.3331 8.97237 10.6295 8.76442 11.73 8.13774C12.8305 7.51107 13.6584 6.5093 14.0567 5.32259L14.7142 3.40185H19.144L19.8015 5.33959C20.1998 6.52629 21.0277 7.52807 22.1282 8.15474C23.2287 8.78141 24.5251 8.98937 25.7713 8.73912L27.8132 8.33118L30.0281 12.1047L28.6438 13.6345C27.802 14.5672 27.3373 15.7705 27.3373 17.017C27.3373 18.2635 27.802 19.4668 28.6438 20.3995ZM16.9291 10.2009C15.5601 10.2009 14.2219 10.5997 13.0837 11.3468C11.9455 12.0939 11.0583 13.1557 10.5344 14.3981C10.0106 15.6405 9.8735 17.0075 10.1406 18.3264C10.4076 19.6453 11.0668 20.8568 12.0348 21.8077C13.0028 22.7585 14.2361 23.4061 15.5788 23.6684C16.9214 23.9308 18.3131 23.7961 19.5778 23.2815C20.8426 22.7669 21.9236 21.8955 22.6841 20.7774C23.4447 19.6593 23.8506 18.3447 23.8506 17C23.8506 15.1968 23.1214 13.4674 21.8233 12.1923C20.5253 10.9173 18.7648 10.2009 16.9291 10.2009ZM16.9291 20.3995C16.2446 20.3995 15.5755 20.2002 15.0064 19.8266C14.4373 19.4531 13.9937 18.9221 13.7318 18.3009C13.4698 17.6798 13.4013 16.9962 13.5348 16.3368C13.6684 15.6773 13.998 15.0716 14.482 14.5962C14.966 14.1207 15.5826 13.797 16.2539 13.6658C16.9253 13.5346 17.6211 13.6019 18.2535 13.8592C18.8858 14.1165 19.4263 14.5523 19.8066 15.1113C20.1869 15.6704 20.3899 16.3276 20.3899 17C20.3899 17.9016 20.0252 18.7663 19.3762 19.4038C18.7272 20.0414 17.8469 20.3995 16.9291 20.3995Z" fill="#F7F7F7"/>
    <path d="M31.222 18.1218C30.9446 17.8117 30.7916 17.4129 30.7916 17C30.7916 16.5871 30.9446 16.1883 31.222 15.8782L33.4369 13.4305C33.681 13.1631 33.8325 12.8266 33.8698 12.4693C33.9071 12.112 33.8283 11.7523 33.6446 11.4418L30.1838 5.56056C30.0019 5.25038 29.725 5.00452 29.3926 4.85802C29.0601 4.71151 28.6891 4.67185 28.3323 4.74467L25.0792 5.39058C24.6652 5.4746 24.2343 5.40688 23.8677 5.20021C23.5011 4.99353 23.2242 4.6622 23.0892 4.26873L22.0337 1.15815C21.9176 0.820545 21.6965 0.527311 21.4015 0.3199C21.1065 0.112489 20.7526 0.00139176 20.3899 0.00231161H13.4683C13.091 -0.0170352 12.7176 0.0854751 12.4051 0.294186C12.0927 0.502897 11.8583 0.806335 11.7379 1.15815L10.7689 4.26873C10.634 4.6622 10.3571 4.99353 9.99046 5.20021C9.62386 5.40688 9.19294 5.4746 8.779 5.39058L5.43937 4.74467C5.10116 4.69772 4.75638 4.75014 4.44846 4.89533C4.14053 5.04052 3.88324 5.27198 3.70899 5.56056L0.248225 11.4418C0.0598902 11.7488 -0.024791 12.1065 0.00628741 12.4637C0.0373659 12.8209 0.182613 13.1593 0.421262 13.4305L2.61885 15.8782C2.89626 16.1883 3.04925 16.5871 3.04925 17C3.04925 17.4129 2.89626 17.8117 2.61885 18.1218L0.421262 20.5695C0.182613 20.8407 0.0373659 21.1791 0.00628741 21.5363C-0.024791 21.8935 0.0598902 22.2512 0.248225 22.5582L3.70899 28.4394C3.89084 28.7496 4.16774 28.9955 4.5002 29.142C4.83267 29.2885 5.20373 29.3282 5.56049 29.2553L8.81361 28.6094C9.22754 28.5254 9.65847 28.5931 10.0251 28.7998C10.3917 29.0065 10.6686 29.3378 10.8035 29.7313L11.8591 32.8418C11.9795 33.1937 12.2138 33.4971 12.5263 33.7058C12.8387 33.9145 13.2121 34.017 13.5895 33.9977H20.511C20.8737 33.9986 21.2276 33.8875 21.5226 33.6801C21.8176 33.4727 22.0388 33.1795 22.1548 32.8418L23.2104 29.7313C23.3453 29.3378 23.6222 29.0065 23.9888 28.7998C24.3554 28.5931 24.7864 28.5254 25.2003 28.6094L28.4534 29.2553C28.8102 29.3282 29.1812 29.2885 29.5137 29.142C29.8462 28.9955 30.1231 28.7496 30.3049 28.4394L33.7657 22.5582C33.9494 22.2477 34.0283 21.888 33.991 21.5307C33.9537 21.1734 33.8021 20.8369 33.558 20.5695L31.222 18.1218ZM28.6438 20.3995L30.0281 21.9293L27.8132 25.7028L25.7713 25.2949C24.5251 25.0446 23.2287 25.2526 22.1282 25.8793C21.0277 26.5059 20.1998 27.5077 19.8015 28.6944L19.144 30.5982H14.7142L14.0913 28.6604C13.693 27.4737 12.8651 26.4719 11.7646 25.8453C10.6641 25.2186 9.36771 25.0106 8.12145 25.2609L6.07961 25.6688L3.83011 21.9123L5.21442 20.3825C6.06568 19.4476 6.53631 18.2373 6.53631 16.983C6.53631 15.7287 6.06568 14.5184 5.21442 13.5835L3.83011 12.0537L6.045 8.31418L8.08685 8.72213C9.3331 8.97237 10.6295 8.76442 11.73 8.13774C12.8305 7.51107 13.6584 6.5093 14.0567 5.32259L14.7142 3.40185H19.144L19.8015 5.33959C20.1998 6.52629 21.0277 7.52807 22.1282 8.15474C23.2287 8.78141 24.5251 8.98937 25.7713 8.73912L27.8132 8.33118L30.0281 12.1047L28.6438 13.6345C27.802 14.5672 27.3373 15.7705 27.3373 17.017C27.3373 18.2635 27.802 19.4668 28.6438 20.3995ZM16.9291 10.2009C15.5601 10.2009 14.2219 10.5997 13.0837 11.3468C11.9455 12.0939 11.0583 13.1557 10.5344 14.3981C10.0106 15.6405 9.8735 17.0075 10.1406 18.3264C10.4076 19.6453 11.0668 20.8568 12.0348 21.8077C13.0028 22.7585 14.2361 23.4061 15.5788 23.6684C16.9214 23.9308 18.3131 23.7961 19.5778 23.2815C20.8426 22.7669 21.9236 21.8955 22.6841 20.7774C23.4447 19.6593 23.8506 18.3447 23.8506 17C23.8506 15.1968 23.1214 13.4674 21.8233 12.1923C20.5253 10.9173 18.7648 10.2009 16.9291 10.2009ZM16.9291 20.3995C16.2446 20.3995 15.5755 20.2002 15.0064 19.8266C14.4373 19.4531 13.9937 18.9221 13.7318 18.3009C13.4698 17.6798 13.4013 16.9962 13.5348 16.3368C13.6684 15.6773 13.998 15.0716 14.482 14.5962C14.966 14.1207 15.5826 13.797 16.2539 13.6658C16.9253 13.5346 17.6211 13.6019 18.2535 13.8592C18.8858 14.1165 19.4263 14.5523 19.8066 15.1113C20.1869 15.6704 20.3899 16.3276 20.3899 17C20.3899 17.9016 20.0252 18.7663 19.3762 19.4038C18.7272 20.0414 17.8469 20.3995 16.9291 20.3995Z" fill="black" fill-opacity="0.2"/>
</svg>